<svg width="32" height="32" viewBox="0 0 32 32" fill="none" xmlns="http://www.w3.org/2000/svg">
<path d="M28.8458 15.1489L10.8583 4.1489C10.7068 4.05549 10.5332 4.00418 10.3554 4.00024C10.1775 3.99631 10.0018 4.0399 9.84639 4.12652C9.69099 4.21314 9.56151 4.33965 9.47131 4.493C9.3811 4.64635 9.33345 4.82099 9.33325 4.9989V26.9989C9.33345 27.1768 9.3811 27.3514 9.47131 27.5048C9.56151 27.6581 9.69099 27.7847 9.84639 27.8713C10.0018 27.9579 10.1775 28.0015 10.3554 27.9976C10.5332 27.9936 10.7068 27.9423 10.8583 27.8489L28.8458 16.8489C28.9935 16.7616 29.1158 16.6372 29.2009 16.4882C29.2859 16.3391 29.3306 16.1705 29.3306 15.9989C29.3306 15.8273 29.2859 15.6587 29.2009 15.5096C29.1158 15.3606 28.9935 15.2362 28.8458 15.1489Z" fill="white" stroke="white" stroke-width="1.5" stroke-linecap="round" stroke-linejoin="round"/>
</svg>
