<svg width="73" height="60" viewBox="0 0 73 60" fill="none" xmlns="http://www.w3.org/2000/svg">
<path d="M6.96266 26.0111C5.27867 26.0111 3.83216 25.5178 2.62314 24.5312L1.16584 23.0185C0.60451 22.01 0.269871 21.0124 0.161922 20.0258C0.0539741 19.0173 0.0323845 17.9759 0.0971534 16.9017C0.528946 16.1343 0.971534 15.7068 1.42492 15.6191L6.76835 16.2439C6.55246 17.3182 6.44451 18.2829 6.44451 19.1379C6.85471 19.7299 7.44843 19.982 8.22566 19.8943L8.9705 19.4668C9.74773 18.1952 10.104 16.6934 10.0392 14.9614L9.8125 7.56204C8.47394 7.78128 7.24333 7.85802 6.12067 7.79225L5.69967 7.46339C4.98721 6.32334 4.70654 4.96405 4.85767 3.38552C4.98721 2.66203 5.34344 2.05912 5.92636 1.5768C6.89789 1.13832 7.98817 0.99581 9.19719 1.14928C12.7163 1.28082 15.0912 1.58776 16.3218 2.07009L16.5809 7.33184L15.415 7.46339C16.0195 11.8701 16.2786 14.9395 16.1922 16.6715C15.9548 18.4035 15.5122 19.9272 14.8645 21.2426C14.2384 22.5581 13.3316 23.7968 12.1442 24.9587C11.4317 25.5287 9.70455 25.8795 6.96266 26.0111Z" fill="#FFEFF6"/>
<path d="M26.3286 25.9453C25.4002 25.748 24.569 25.3972 23.835 24.893C23.1009 24.3887 22.3777 23.7748 21.6652 23.0513C20.6073 21.4728 19.8841 19.7737 19.4955 17.954C19.1068 16.1343 18.9557 14.1502 19.0421 12.0016C19.0421 10.2916 19.2364 8.65824 19.625 7.10164C20.0136 5.52311 20.6937 4.08709 21.6652 2.79358C22.5936 1.78507 23.6838 1.21505 24.936 1.08351C26.2098 0.930038 27.516 0.886191 28.8546 0.951962C30.3011 1.1712 31.4885 1.76315 32.4169 2.72781C33.4748 4.19671 34.252 5.85197 34.7485 7.69359C35.2451 9.51328 35.461 11.4207 35.3962 13.4157C35.4826 15.4766 35.2235 17.4169 34.619 19.2366C34.0145 21.0563 33.1077 22.7006 31.8987 24.1695C31.2294 24.8053 30.409 25.2985 29.4375 25.6493C28.4875 26.0001 27.4512 26.0988 26.3286 25.9453ZM27.9154 20.3876C28.4767 19.3133 28.833 18.1842 28.9841 17.0003C29.1352 15.8164 29.2432 14.5668 29.3079 13.2513C29.2 12.2867 29.0597 11.2891 28.887 10.2587C28.7358 9.20634 28.4767 8.2965 28.1097 7.52916L26.9439 7.2003C26.4905 7.44146 26.1343 7.8909 25.8752 8.54862C25.6161 9.20634 25.4434 10.0723 25.357 11.1466C25.2923 12.199 25.2707 13.2952 25.2923 14.4352C25.357 15.5095 25.5298 16.5618 25.8104 17.5923C26.0911 18.6008 26.4365 19.5654 26.8467 20.4862L27.462 20.6835L27.9154 20.3876Z" fill="#FFEFF6"/>
<path d="M39.1852 25.9782L38.3432 25.7809C38.1057 25.0355 37.9222 23.9941 37.7927 22.6567V16.3426C37.9654 13.7775 38.1381 10.9055 38.3108 7.72647C38.0302 3.9117 37.987 1.807 38.1813 1.41237C39.9732 1.1712 41.614 1.10543 43.1037 1.21505L45.0468 1.54391C45.1548 2.33317 45.1548 3.30879 45.0468 4.47076C44.9389 5.63273 44.7877 6.87144 44.5934 8.18688C44.4207 9.48039 44.3128 10.6972 44.2696 11.8372L46.7308 12.0674L47.4433 11.8372L47.3137 6.57546C47.0546 3.79112 47.1302 2.08105 47.5404 1.44525C48.7926 1.00677 50.1959 0.864267 51.7504 1.01773L53.7582 1.64257C53.9741 2.30029 54.0389 3.01282 53.9525 3.78016C53.8878 6.54258 53.7798 9.00903 53.6287 11.1795C53.4991 13.3281 53.5423 15.1149 53.7582 16.5399V21.3742L53.4344 25.7809L52.4305 26.1426C50.984 26.2961 49.6022 26.2522 48.2853 26.0111L48.0586 24.2681L48.1881 17.099L45.2411 17.0003L44.8849 24.597C44.7769 25.3643 44.4423 25.9234 43.881 26.2742L39.1852 25.9782Z" fill="#FFEFF6"/>
<path d="M56.9319 26.1426C56.824 25.1999 56.7376 23.7748 56.6728 21.8674C56.6297 19.9601 56.5757 18.3377 56.5109 17.0003L56.4138 6.57546C56.4138 4.79962 56.7592 3.21013 57.4501 1.807C59.1556 0.951963 60.926 0.688875 62.7611 1.01773C63.2577 1.34659 63.6355 1.67545 63.8946 2.00431C64.4343 2.92512 64.9201 4.35018 65.3519 6.27949C65.8053 8.18688 66.2802 10.0285 66.7768 11.8043L66.8739 7.85802L66.2586 3.25398C66.1075 2.3551 66.4206 1.56583 67.1978 0.886191C67.975 0.184623 68.9573 -0.100389 70.1448 0.0311551C70.9436 0.0750031 71.5913 0.403863 72.0878 1.01773C72.5196 1.91662 72.7787 2.89224 72.8651 3.94459C72.973 4.97501 73.0162 5.92871 72.9946 6.80567V13.9748C72.8651 15.9918 72.7247 18.0198 72.5736 20.0587C72.4441 22.0976 71.9799 24.0818 71.1811 26.0111L66.7768 26.1426L65.87 25.6164C65.3519 24.2352 64.9633 22.854 64.7042 21.4728C64.4451 20.0916 64.0133 18.8419 63.4088 17.7238L63.1497 21.0124L63.2793 25.748L61.0771 26.4057L56.9319 26.1426Z" fill="#FFEFF6"/>
<path d="M1.74876 59.7521C1.55445 59.5986 1.29538 59.215 0.971534 58.6011C0.669279 57.9872 0.474972 56.88 0.388614 55.2796C0.323845 53.6572 0.194307 52.0897 0 50.5769V41.5661C0.129538 40.4919 0.367024 39.4395 0.712458 38.4091C1.07948 37.3787 1.63002 36.5346 2.36407 35.8769C3.09811 35.2192 3.92932 34.8464 4.85767 34.7587L9.52104 34.5614C11.2266 34.7587 12.5544 35.4494 13.5043 36.6332C14.4974 37.7952 15.1667 39.0887 15.5122 40.5138C15.8576 41.9389 15.9979 43.4735 15.9332 45.1178C15.782 46.2579 15.4906 47.3102 15.0588 48.2749C14.6486 49.2395 14.0333 50.1494 13.2129 51.0044C12.414 51.8595 11.4641 52.3966 10.363 52.6158C9.28355 52.8351 8.15009 52.8789 6.96266 52.7474L6.86551 54.2272C6.99505 55.3673 7.13538 56.5183 7.28651 57.6803C7.17856 58.8203 6.82233 59.5109 6.21782 59.7521H1.74876ZM8.64665 47.4856C9.35911 46.1263 9.60739 44.5917 9.3915 42.8816C9.32673 42.1581 9.07845 41.5113 8.64665 40.9413C8.36599 40.8098 7.75068 40.7659 6.80074 40.8098L6.31497 42.2239L6.41213 47.1239C6.36895 47.4966 6.45531 47.7597 6.6712 47.9131L7.90181 47.8145L8.64665 47.4856Z" fill="#FFEFF6"/>
<path d="M25.778 59.6205C24.8497 59.4232 24.0185 59.0724 23.2844 58.5682C22.5504 58.0639 21.8271 57.4501 21.1147 56.7266C20.0568 55.1481 19.3335 53.4489 18.9449 51.6293C18.5563 49.8096 18.4052 47.8254 18.4915 45.6769C18.4915 43.9668 18.6858 42.3335 19.0745 40.7769C19.4631 39.1984 20.1431 37.7623 21.1147 36.4688C22.043 35.4603 23.1333 34.8903 24.3855 34.7587C25.6593 34.6053 26.9655 34.5614 28.304 34.6272C29.7505 34.8464 30.938 35.4384 31.8663 36.403C32.9242 37.872 33.7014 39.5272 34.198 41.3688C34.6946 43.1885 34.9105 45.0959 34.8457 47.091C34.9321 49.1518 34.673 51.0921 34.0685 52.9118C33.464 54.7315 32.5572 56.3758 31.3482 57.8447C30.6789 58.4805 29.8585 58.9738 28.887 59.3246C27.937 59.6754 26.9007 59.774 25.778 59.6205ZM27.3649 54.0628C27.9262 52.9885 28.2824 51.8595 28.4336 50.6756C28.5847 49.4917 28.6926 48.242 28.7574 46.9266C28.6495 45.9619 28.5091 44.9644 28.3364 43.9339C28.1853 42.8816 27.9262 41.9717 27.5592 41.2044L26.3933 40.8755C25.94 41.1167 25.5837 41.5661 25.3247 42.2239C25.0656 42.8816 24.8929 43.7476 24.8065 44.8219C24.7417 45.8742 24.7201 46.9704 24.7417 48.1105C24.8065 49.1847 24.9792 50.2371 25.2599 51.2675C25.5406 52.276 25.886 53.2407 26.2962 54.1615L26.9115 54.3588L27.3649 54.0628Z" fill="#FFEFF6"/>
<path d="M38.0841 59.7521L37.987 58.6669C37.7711 57.3733 37.6308 56.0689 37.566 54.7534C37.5012 53.4161 37.4365 52.0677 37.3717 50.7084L37.2421 38.2775C37.2421 37.2033 37.5228 36.3811 38.0841 35.8111C38.6671 35.2411 39.2932 34.9122 39.9624 34.8245L46.6984 34.5614C48.6631 34.8464 50.1959 35.6905 51.297 37.0937C52.139 38.1022 52.7327 39.2532 53.0782 40.5467C53.4452 41.8183 53.6287 43.1337 53.6287 44.493C53.5855 45.655 53.3912 46.6306 53.0458 47.4198C52.7219 48.1872 52.1714 48.9326 51.3942 49.6561L50.1312 50.5111C51.405 51.1908 52.2901 52.1883 52.7867 53.5038C53.2833 54.8192 53.4776 55.9812 53.3696 56.9897C53.2617 57.9762 52.7651 58.7217 51.8799 59.2259C50.9948 59.7082 50.0016 59.8836 48.9006 59.7521C47.7995 59.6425 47.0223 59.2917 46.5689 58.6997C46.1371 58.1078 46.1803 57.1651 46.6984 55.8715L46.9575 55.1152C46.8495 54.4136 46.5257 53.9203 45.986 53.6353C45.4462 53.3284 44.8633 53.1749 44.2372 53.1749L44.3343 57.0554C44.248 58.3709 44.0861 59.204 43.8486 59.5548L41.8084 59.8179C39.7358 60.0809 38.4943 60.059 38.0841 59.7521ZM46.0507 48.3735C46.5905 47.4308 46.7956 46.2469 46.666 44.8219C46.6228 43.3091 46.2342 42.1691 45.5002 41.4017C44.6582 41.029 44.194 41.4236 44.1077 42.5856L43.9781 48.8011C44.9065 48.8011 45.5973 48.6586 46.0507 48.3735Z" fill="#FFEFF6"/>
<path d="M67.6835 59.6534C66.712 59.6754 65.9456 59.3246 65.3843 58.6011C64.8229 57.8557 64.7474 56.902 65.1576 55.74C65.7837 54.863 66.0319 53.9532 65.9024 53.0105C65.6649 51.8704 65.1576 51.2456 64.3803 51.136L62.8259 52.7145C63.1281 54.1395 63.2577 55.3673 63.2145 56.3977L62.6963 59.1601C61.8543 59.7082 60.7749 59.9494 59.4579 59.8836C58.1409 59.8179 57.1046 59.6425 56.349 59.3575C56.0899 57.8885 55.9604 55.6633 55.9604 52.6816V37.7514L56.1547 35.2849C56.3706 34.8903 56.716 34.693 57.191 34.693C60.4294 34.6491 62.4373 34.8245 63.2145 35.2192C63.4088 35.9865 63.452 36.9073 63.344 37.9816L62.7935 38.5077L62.6963 44.4272C64.6178 39.5601 65.8268 36.3702 66.3234 34.8574L67.8779 34.5614C69.6698 34.7149 71.1271 35.3945 72.2498 36.6004L72.3469 37.6527C71.6345 39.3409 70.9112 40.9961 70.1772 42.6185C69.4431 44.2409 68.4176 45.8961 67.1006 47.5843C68.2017 47.7816 69.184 48.3297 70.0476 49.2286C70.9328 50.1055 71.5373 51.2237 71.8611 52.5829C72.185 53.9203 72.3145 55.3783 72.2498 56.9568C72.2066 57.7241 71.7748 58.3928 70.9544 58.9628C70.134 59.5109 69.0437 59.7411 67.6835 59.6534Z" fill="#FFEFF6"/>
</svg>
