<svg width="129" height="128" viewBox="0 0 129 128" fill="none" xmlns="http://www.w3.org/2000/svg">
<g filter="url(#filter0_d_630_1728)">
<path d="M108.172 56.8084L40.7187 15.5584C40.1509 15.2081 39.4999 15.0157 38.8329 15.0009C38.1659 14.9862 37.507 15.1496 36.9243 15.4744C36.3415 15.7993 35.856 16.2737 35.5177 16.8487C35.1794 17.4238 35.0007 18.0787 35 18.7459V101.246C35.0007 101.913 35.1794 102.568 35.5177 103.143C35.856 103.718 36.3415 104.192 36.9243 104.517C37.507 104.842 38.1659 105.006 38.8329 104.991C39.4999 104.976 40.1509 104.784 40.7187 104.433L108.172 63.1834C108.726 62.8558 109.185 62.3896 109.504 61.8307C109.822 61.2717 109.99 60.6394 109.99 59.9959C109.99 59.3524 109.822 58.72 109.504 58.1611C109.185 57.6021 108.726 57.1359 108.172 56.8084Z" fill="white"/>
<path d="M108.172 56.8084L40.7187 15.5584C40.1509 15.2081 39.4999 15.0157 38.8329 15.0009C38.1659 14.9862 37.507 15.1496 36.9243 15.4744C36.3415 15.7993 35.856 16.2737 35.5177 16.8487C35.1794 17.4238 35.0007 18.0787 35 18.7459V101.246C35.0007 101.913 35.1794 102.568 35.5177 103.143C35.856 103.718 36.3415 104.192 36.9243 104.517C37.507 104.842 38.1659 105.006 38.8329 104.991C39.4999 104.976 40.1509 104.784 40.7187 104.433L108.172 63.1834C108.726 62.8558 109.185 62.3896 109.504 61.8307C109.822 61.2717 109.99 60.6394 109.99 59.9959C109.99 59.3524 109.822 58.72 109.504 58.1611C109.185 57.6021 108.726 57.1359 108.172 56.8084Z" stroke="white" stroke-width="1.5" stroke-linecap="round" stroke-linejoin="round"/>
</g>
<defs>
<filter id="filter0_d_630_1728" x="16.35" y="0.35" width="112.29" height="127.292" filterUnits="userSpaceOnUse" color-interpolation-filters="sRGB">
<feFlood flood-opacity="0" result="BackgroundImageFix"/>
<feColorMatrix in="SourceAlpha" type="matrix" values="0 0 0 0 0 0 0 0 0 0 0 0 0 0 0 0 0 0 127 0" result="hardAlpha"/>
<feOffset dy="4"/>
<feGaussianBlur stdDeviation="8.95"/>
<feComposite in2="hardAlpha" operator="out"/>
<feColorMatrix type="matrix" values="0 0 0 0 0 0 0 0 0 0 0 0 0 0 0 0 0 0 0.6 0"/>
<feBlend mode="normal" in2="BackgroundImageFix" result="effect1_dropShadow_630_1728"/>
<feBlend mode="normal" in="SourceGraphic" in2="effect1_dropShadow_630_1728" result="shape"/>
</filter>
</defs>
</svg>
